# xmcd CD database file
#
# Track frame offsets:
#	150
#	30882
#	63045
#	85707
#	117537
#	150347
#	179135
#
# Disc length: 2681 seconds
#
# Revision: 1
# Processed by: cddbd v1.5.1PL0 Copyright (c) Steve Scherf et al.
# Submitted via: CDex 1.51
#
DISCID=4a0a7707
DTITLE=Art Farmer - Interaction
DYEAR=1963
DGENRE=Jazz
TTITLE0=Days Of Wine And Roses
TTITLE1=By Myself
TTITLE2=My Little Suede Shoes
TTITLE3=Embraceable You
TTITLE4=My Kinda Love
TTITLE5=Sometime Ago
TTITLE6=Loads Of Love
EXTD=YEAR: 1963
EXTT0=
EXTT1=
EXTT2=
EXTT3=
EXTT4=
EXTT5=
EXTT6=
PLAYORDER=
